<?xml version="1.0" ?><!DOCTYPE svg  PUBLIC '-//W3C//DTD SVG 1.1//EN'  'http://www.w3.org/Graphics/SVG/1.1/DTD/svg11.dtd'><svg height="32px" style="fill-rule:evenodd;clip-rule:evenodd;stroke-linejoin:round;stroke-miterlimit:2;" version="1.1" width="32px" xml:space="preserve" xmlns="http://www.w3.org/2000/svg" xmlns:serif="http://www.serif.com/" xmlns:xlink="http://www.w3.org/1999/xlink"><path d="M11,6.054l0,-1.054c0,-0.758 -0.428,-1.45 -1.106,-1.789c-0.677,-0.339 -1.488,-0.266 -2.094,0.189c-1.585,1.188 -3.966,2.975 -5.333,4c-0.504,0.378 -0.8,0.97 -0.8,1.6c-0,0.63 0.296,1.222 0.8,1.6c1.367,1.025 3.748,2.812 5.333,4c0.606,0.455 1.417,0.528 2.094,0.189c0.678,-0.339 1.106,-1.031 1.106,-1.789c0,-0 0,-0.829 0,-0.829c1.165,0.412 2,1.524 2,2.829l0,12c-0,0.53 0.211,1.039 0.586,1.414c0.375,0.375 0.884,0.586 1.414,0.586l2,-0c1.105,-0 2,-0.895 2,-2c-0,-2.875 0,-11.019 0,-12c0,-1.305 0.835,-2.417 2,-2.829l0,0.829c0,0.758 0.428,1.45 1.106,1.789c0.677,0.339 1.488,0.266 2.094,-0.189c1.585,-1.188 3.966,-2.975 5.333,-4c0.504,-0.378 0.8,-0.97 0.8,-1.6c0,-0.63 -0.296,-1.222 -0.8,-1.6c-1.367,-1.025 -3.748,-2.812 -5.333,-4c-0.606,-0.455 -1.417,-0.528 -2.094,-0.189c-0.678,0.339 -1.106,1.031 -1.106,1.789l0,1.054c-1.913,0.207 -3.642,1.003 -5.002,2.218c-1.359,-1.211 -3.09,-2.009 -4.998,-2.218Z"/></svg>