<?xml version="1.0" ?><!DOCTYPE svg  PUBLIC '-//W3C//DTD SVG 1.1//EN'  'http://www.w3.org/Graphics/SVG/1.1/DTD/svg11.dtd'><svg height="32px" style="fill-rule:evenodd;clip-rule:evenodd;stroke-linejoin:round;stroke-miterlimit:2;" version="1.1" width="32px" xml:space="preserve" xmlns="http://www.w3.org/2000/svg" xmlns:serif="http://www.serif.com/" xmlns:xlink="http://www.w3.org/1999/xlink"><path d="M7,14.986l0,4c0,4.967 4.033,9 9,9c4.967,-0 9,-4.033 9,-9l-0,-3.996l1.132,0c0.737,0 1.415,-0.406 1.763,-1.056c0.348,-0.65 0.31,-1.439 -0.099,-2.053l-4.132,-6.197c-0.371,-0.557 -0.995,-0.891 -1.664,-0.891c-0.669,0 -1.293,0.334 -1.664,0.891l-4.131,6.197c-0.084,0.125 -0.152,0.258 -0.205,0.396c-0.052,-0.138 -0.121,-0.271 -0.204,-0.396l-4.132,-6.198c-0.371,-0.556 -0.995,-0.89 -1.664,-0.89c-0.669,-0 -1.293,0.334 -1.664,0.89l-4.13,6.195c-0.409,0.614 -0.447,1.404 -0.099,2.054c0.349,0.651 1.028,1.057 1.766,1.056l1.127,-0.002Zm9,-1.283c-0.03,0.078 -0.065,0.156 -0.105,0.231c-0.348,0.65 -1.026,1.056 -1.763,1.056l-1.132,-0l0,3.996c0,1.656 1.344,3 3,3c1.656,-0 3,-1.344 3,-3l0.009,0.009c-0.006,-0.048 -0.009,-0.097 -0.009,-0.149l-0,-3.856l-1.131,0c-0.738,0 -1.416,-0.406 -1.764,-1.056c-0.04,-0.075 -0.075,-0.152 -0.105,-0.231Z"/></svg>